<svg id="Livello_1" data-name="Livello 1" xmlns="http://www.w3.org/2000/svg" viewBox="0 0 1000 1000"><defs><style>.cls-1{fill:#1d1d1b;}</style></defs><path class="cls-1" d="M670.8,698.77H604.48c-22.91-39.5-47.11-86.17-70.53-131.32-21.69-41.83-44.13-85.08-64.88-121.33l-2.28-4-32.73,31.73V698.77H376.59v-.68c0-49.76,0-113.78,0-175.09,0-80.76,0-158.07-.05-216.38v-2.8h57.54v90.4l6.07-5.85c18.3-17.63,37.56-36.16,57.07-55l30.74-29.59H610.6l-93.25,89.81-8,7.54Z"/><path class="cls-1" d="M935,475V653.87c-16.31,14.25-42.87,25.46-64,33.32a195.17,195.17,0,0,1-68.07,12.72c-24.75,0-47.72-4.86-68.33-14.45a160.75,160.75,0,0,1-54.16-41.26C665,626.33,652.86,605,644.28,580.73s-13-51.49-13-80.73,4.36-56.4,13-80.73,20.81-45.55,36.36-63.44a162.68,162.68,0,0,1,54.65-41.28c20.76-9.59,44-14.46,69-14.46,27.75,0,53,5.69,75.13,16.91a147.41,147.41,0,0,1,15.74,9.25l-27.93,50.66c-2.6-1.66-5.22-3.2-7.86-4.58a108.22,108.22,0,0,0-51.27-12.49c-17.53,0-33.84,3.43-48.44,10.21a109.06,109.06,0,0,0-38,29.39A135.49,135.49,0,0,0,697.54,444c-5.55,16.84-8.37,35.69-8.37,56,0,20,2.82,38.61,8.37,55.45a138.6,138.6,0,0,0,24.14,44.75,108,108,0,0,0,37.74,29.72,111.08,111.08,0,0,0,47.77,10.24,125.2,125.2,0,0,0,48.29-9.76,109.87,109.87,0,0,0,17-8.92l4.69-3V475Z"/><path class="cls-1" d="M109.75,623.79c29.9,14.7,63.18,21.53,95.76,15.63,20.22-3.76,39.63-14.47,54.81-28.59,27.27-25.25,43.51-63.43,36.39-100.61-5.6-32.14-30.66-58.61-63-64.5C213.4,442.29,189.47,448,177.07,465c-7.35,10.44-9.66,25.2-4,36.9,3.62,7.36,10.06,13.17,18.56,14.71a25.18,25.18,0,0,0,18-3.38,22.7,22.7,0,0,1-3.34,3.9c-10,9.12-25.94,8.71-36.79,1.16-17.31-11.26-22.3-34.55-17.14-53.61a61.92,61.92,0,0,1,19.2-30.66c24-21.07,59.13-25.41,89-16,53.32,16.41,85.77,66.77,86.08,121.55.37,33.55-12,66.65-32.15,93.24C285.81,671,241.6,696.72,193.5,699.39c-35.43,2.54-71.23-5.37-102.93-21.12-1.92-.93-5.66-3-7.53-4l26.71-50.51Z"/><path class="cls-1" d="M295.79,376.18c-29.9-14.7-63.18-21.52-95.76-15.63-20.23,3.76-39.63,14.47-54.81,28.59-27.28,25.25-43.51,63.43-36.4,100.61,5.6,32.15,30.66,58.61,63,64.51,20.32,3.42,44.25-2.23,56.64-19.33,7.35-10.44,9.67-25.2,4-36.9-3.62-7.36-10.06-13.16-18.55-14.7a25.15,25.15,0,0,0-18,3.37,23.15,23.15,0,0,1,3.35-3.89c10-9.13,25.94-8.71,36.79-1.17,17.31,11.26,22.29,34.55,17.13,53.61a61.81,61.81,0,0,1-19.2,30.67c-24,21.06-59.12,25.4-89,16C91.76,565.54,59.32,515.18,59,460.4c-.37-33.55,12-66.65,32.15-93.23C119.73,329,163.93,303.25,212,300.59,247.46,298,283.26,306,315,321.7c1.92.93,5.66,3,7.54,4l-26.71,50.51Z"/></svg>