<svg id="Livello_1" data-name="Livello 1" xmlns="http://www.w3.org/2000/svg" viewBox="0 0 1000 1000"><defs><style>.cls-1{fill:#fdfdfd;}</style></defs><path class="cls-1" d="M257.15,651.84q-54.21,0-84.77-28.91t-30.56-82.55V403.84h58.94V538.29q0,34.83,14.92,50.16t41.84,15.32q26.91,0,41.84-15.32t14.91-50.16V403.84h58.22V540.38q0,53.64-30.56,82.55T257.15,651.84Z"/><path class="cls-1" d="M473.3,701.91l-1.09-348.78H372.49v-55H630.88V354H531.15l1.09,347.91Z"/><path class="cls-1" d="M630.88,651.84v-248H739.66q53.12,0,82.59,23.51t29.47,65q0,27.17-13.46,46.85t-38.2,30.13q-24.75,10.45-58.94,10.45h-77.5L689.82,555v96.8Zm58.94-90.53-26.2-26.47h74.22q27.28,0,40.75-11.32t13.46-31.18q0-20.19-13.46-31.35t-40.75-11.14H663.62L689.82,423Zm104.69,90.53-65.4-92.62h62.94l66.13,92.62Z"/><circle class="cls-1" cx="257.15" cy="515.07" r="29.47"/></svg>