<svg id="Livello_1" data-name="Livello 1" xmlns="http://www.w3.org/2000/svg" viewBox="0 0 1000 1000"><defs><style>.cls-1{fill:#1d1d1b;}</style></defs><path class="cls-1" d="M255.93,651.71q-54.21,0-84.77-28.91T140.6,540.25V403.71h58.94V538.16q0,34.83,14.92,50.16t41.84,15.32q26.91,0,41.84-15.32t14.91-50.16V403.71h58.22V540.25q0,53.64-30.56,82.55T255.93,651.71Z"/><path class="cls-1" d="M472.08,701.78,471,353H371.27V298H629.66v55.91H529.93L531,701.78Z"/><path class="cls-1" d="M629.66,651.71v-248H738.44q53.12,0,82.59,23.51t29.47,65q0,27.17-13.46,46.85t-38.2,30.13q-24.75,10.44-58.94,10.45H662.4l26.2-24.73v96.8Zm58.94-90.53L662.4,534.7h74.22q27.28,0,40.75-11.32t13.46-31.17q0-20.2-13.46-31.35t-40.75-11.15H662.4l26.2-26.82Zm104.69,90.53-65.4-92.62h62.94L857,651.71Z"/><circle class="cls-1" cx="255.93" cy="514.94" r="29.47"/></svg>